<?xml version="1.0" encoding="utf-8"?>
<!-- Generator: Adobe Illustrator 16.0.0, SVG Export Plug-In . SVG Version: 6.00 Build 0)  -->
<!DOCTYPE svg PUBLIC "-//W3C//DTD SVG 1.1//EN" "http://www.w3.org/Graphics/SVG/1.1/DTD/svg11.dtd">
<svg version="1.1" id="Layer_1" xmlns="http://www.w3.org/2000/svg" xmlns:xlink="http://www.w3.org/1999/xlink" x="0px" y="0px"
	 width="78.121px" height="100px" viewBox="0 0 78.121 100" enable-background="new 0 0 78.121 100" xml:space="preserve">
<path fill="#010101" d="M64.104,70.883L38.948,47.865L13.972,70.833c-0.589,0.574-1.224,1.077-1.897,1.512V94.03
	c0,3.297,2.673,5.97,5.97,5.97h11.94c0-3.161,0-8.489,0-10.698c0-4.944,4.01-8.705,8.955-8.705c4.947,0,8.956,4.012,8.956,8.955
	c0,2.037,0,7.306,0,10.448h11.939c3.298,0,5.971-2.673,5.971-5.97V72.259C65.206,71.857,64.634,71.398,64.104,70.883z"/>
<path fill="#010101" d="M76.475,61.381L41.928,30.09V16.418h8.209c1.236,0,2.239-1.003,2.239-2.239v-1.493
	c0-1.236-1.003-2.239-2.239-2.239h-8.209V2.239C41.928,1.007,40.921,0,39.689,0h-1.492c-1.231,0-2.239,1.007-2.239,2.239v8.209
	H27.75c-1.236,0-2.239,1.003-2.239,2.239v1.493c0,1.236,1.003,2.239,2.239,2.239h8.208v13.691L1.652,61.329
	C0.564,62.415-0.021,63.866,0,65.415c0.019,1.551,0.64,3.018,1.746,4.122c1.095,1.096,2.526,1.699,4.032,1.699
	s2.938-0.601,4.077-1.743l29.083-26.742l29.275,26.786c1.096,1.096,2.554,1.699,4.104,1.699c1.548,0,3.007-0.601,4.102-1.699
	c1.096-1.096,1.7-2.554,1.7-4.104C78.121,63.883,77.519,62.426,76.475,61.381z"/>
</svg>
